<?xml version="1.0" encoding="UTF-8"?><svg id="a" xmlns="http://www.w3.org/2000/svg" viewBox="0 0 79.99996 80"><path d="M39.99998,73.00021c18.22562,0,32.99999-14.77436,32.99999-33S58.2256,7.00021,39.99998,7.00021,6.99993,21.77456,6.99993,40.0002s14.77437,33,33.00004,33" fill="#fff"/><path d="M39.99998,62.46661c5.11058-1.68868,9.27734-4.87749,12.50037-9.56643,3.22195-4.68894,4.83292-9.94457,4.83292-15.7669v-13.06604l-17.33329-6.53406-17.33335,6.53406v13.06604c0,5.82233,1.61097,11.07796,4.83292,15.7669,3.22302,4.68894,7.38979,7.87776,12.50043,9.56643m0-21.73322h0m0,25.86687c-6.22227-1.55504-11.33385-5.16654-15.33286-10.83345-3.99996-5.66693-6.00051-11.87775-6.00051-18.63352v-15.86635l21.33337-8,21.33331,8v15.86635c0,6.75577-2.00055,12.96659-6.00051,18.63352-3.99901,5.66692-9.1106,9.27842-15.3328,10.83345m10.48428-35.05268l2.10004,2.10004-14.10004,14.09998-8.5-8.5,2.10004-2.09998,6.39996,6.39996,12-12Z"/></svg>