<?xml version="1.0" encoding="UTF-8"?><svg id="a" xmlns="http://www.w3.org/2000/svg" xmlns:xlink="http://www.w3.org/1999/xlink" viewBox="0 0 79.99999 80"><defs><style>.c{fill:none;}.d{fill:#fff;}.e{clip-path:url(#b);}</style><clipPath id="b"><path d="M0,40c0,22.09212,17.90908,40,40,40,22.09212,0,40-17.90788,40-40C79.99999,17.90909,62.09211,0,40,0,17.90908,0,0,17.90909,0,40" fill="none"/></clipPath></defs><g clip-path="#b"><path d="M7,40c0,18.226,14.77499,33,33,33,18.226,0,33-14.774,33-33,0-18.225-14.774-33-33-33C21.77499,7,7,21.775,7,40" fill="#fff"/><path d="M40,38.53358m-17.00001,21.46666h7.66668v-5.33333h13.33333v5.33333h7.66666l4.2-14,6.8-2.33333v-11.66667h-3.46667l-8.53332-8.53333c.04483-.75515,.16605-1.67758,.36727-2.76728,.19879-1.08848,.47757-2.29939,.83272-3.63272-1.91151,.48848-3.6,1.22181-5.06666,2.19999-1.46667,.97818-2.53335,2.11152-3.2,3.4h-15.60001c-2.93333,0-5.44483,1.04485-7.53333,3.13333-2.08847,2.08848-3.13332,4.60001-3.13332,7.53334,0,1.86667,.48848,5.12242,1.46666,9.76727,.97819,4.64364,2.37819,10.27758,4.2,16.89939m-2.99999,3.99999c-1.33334-4.4-2.42182-8.17817-3.26668-11.33333-.84484-3.15515-1.52242-5.89939-2.03393-8.23394-.51031-2.33212-.86546-4.36606-1.06545-6.09939-.20001-1.73333-.30061-3.4-.30061-5,0-4.08849,1.4218-7.55515,4.26665-10.4s6.31152-4.26666,10.4-4.26666h13.33333c1.20001-1.6,2.72243-2.88849,4.56728-3.86667,1.84363-.97818,3.87758-1.46667,6.09939-1.46667,1.11152,0,2.05576,.38909,2.83394,1.16727,.77698,.77697,1.16607,1.72121,1.16607,2.83272,0,.26667-.03274,.53334-.09939,.8-.06788,.26667-.14545,.51151-.23393,.73334-.17819,.48848-.34426,.97818-.4994,1.46667-.15636,.48848-.2788,1.02181-.36728,1.6l6.06667,6.06666h5.8v18.6l-7.53335,2.46666-4.46666,14.93333h-14.66665v-5.33333h-5.33334v5.33333h-14.66665ZM29.33333,30.66691h13.33333v-3.99999h-13.33333v3.99999Zm21.33334,6.66667c.75513,0,1.38909-.25576,1.9006-.76727,.51031-.5103,.76607-1.14424,.76607-1.8994s-.25576-1.38909-.76607-1.90061c-.51151-.5103-1.14546-.76606-1.9006-.76606s-1.3891,.25576-1.8994,.76606c-.51153,.51152-.76729,1.14545-.76729,1.90061s.25576,1.3891,.76729,1.8994c.51029,.51151,1.14424,.76727,1.8994,.76727"/></g></svg>