<?xml version="1.0" encoding="UTF-8"?><svg id="a" xmlns="http://www.w3.org/2000/svg" viewBox="0 0 79.99878 80"><path d="M39.99951,72.9998c18.22498,0,33-14.77499,33-33S58.22449,6.9998,39.99951,6.9998,6.99951,21.7748,6.99951,39.9998s14.77499,33,33,33" fill="#fff"/><path d="M39.99933,46.59971c1.83301,0,3.39203-.642,4.67499-1.925,1.28302-1.283,1.92505-2.84199,1.92505-4.67499s-.64203-3.39201-1.92505-4.675c-1.28296-1.283-2.84198-1.925-4.67499-1.925s-3.39197,.64201-4.67499,1.925c-1.28299,1.283-1.92499,2.842-1.92499,4.675s.642,3.392,1.92499,4.67499c1.28302,1.283,2.84198,1.925,4.67499,1.925m0,15.4c-3.04297,0-5.90298-.578-8.57999-1.732-2.677-1.155-5.005-2.723-6.98498-4.703-1.98001-1.98-3.547-4.308-4.702-6.985-1.155-2.67699-1.733-5.53699-1.733-8.57999s.578-5.903,1.733-8.58,2.72198-5.005,4.702-6.985c1.97998-1.98,4.30798-3.548,6.98498-4.703s5.53702-1.73199,8.57999-1.73199,5.90301,.577,8.58002,1.73199,5.005,2.723,6.98498,4.703,3.54797,4.308,4.70203,6.985c1.15601,2.677,1.73297,5.537,1.73297,8.58s-.57697,5.903-1.73297,8.57999c-1.15405,2.677-2.72205,5.005-4.70203,6.985-1.97998,1.98-4.30798,3.548-6.98498,4.703-2.677,1.154-5.53699,1.732-8.58002,1.732m6.65503-4.4c2.52997-1.027,4.72998-2.484,6.59997-4.372,1.86999-1.889,3.31799-4.08,4.34503-6.573l-8.25-3.41c-.55005,1.54-1.36603,2.832-2.44806,3.878-1.08099,1.04501-2.31897,1.787-3.71197,2.227l3.46503,8.25Zm-24.255-11.055c1.13699,2.603,2.63998,4.858,4.51001,6.765,1.86999,1.907,4.01498,3.337,6.435,4.29l3.465-8.25c-1.39301-.477-2.63101-1.237-3.71301-2.28201-1.08099-1.045-1.897-2.32-2.44699-3.823l-8.25,3.3Zm11.05499-24.145c-2.75,1.137-5.078,2.668-6.98498,4.593-1.90701,1.924-3.263,4.097-4.07001,6.517l8.19501,3.3c.58701-1.503,1.41199-2.787,2.47498-3.85,1.06302-1.063,2.29202-1.833,3.68503-2.31l-3.30002-8.25Zm24.14502,10.945c-1.02704-2.493-2.48401-4.684-4.37201-6.572-1.88904-1.889-4.08002-3.346-6.573-4.373l-3.35504,8.25c1.39301,.477,2.60303,1.23701,3.63,2.283,1.02704,1.045,1.83301,2.319,2.42004,3.822l8.25-3.41Z"/></svg>