<?xml version="1.0" encoding="UTF-8"?><svg id="a" xmlns="http://www.w3.org/2000/svg" viewBox="0 0 80 80.00001"><path d="M40,73.00031c-18.2251,0-33-14.77499-33-33S21.7749,7.00031,40,7.00031s33,14.775,33,33-14.77502,33-33,33" fill="#fff"/><path d="M40.21997,39.78021m-14.13501,16.445l-2.20007-2.2,15.01501-15.015c-.58691-.77-1.02698-1.677-1.31995-2.722s-.44006-2.045-.44006-2.998c0-2.75,1.01709-5.078,3.0531-6.985,2.03491-1.907,4.354-2.878,6.95691-2.915l-5.55493,5.665c-.33008,.33-.495,.733-.495,1.21001s.16492,.88,.495,1.21l7.26001,6.82c.32996,.32999,.73291,.495,1.20996,.495s.88-.165,1.20996-.495l5.33508-5.28c-.10999,2.823-1.10901,5.15199-2.99707,6.98499-1.88892,1.833-4.11597,2.75-6.68298,2.75-.91699,0-1.88794-.147-2.91504-.43999-1.02698-.293-1.92493-.733-2.69495-1.32l-15.23499,15.235Zm1.54004,3.13499l14.18994-14.3c.84302,.293,1.68701,.532,2.53003,.715s1.70496,.275,2.58496,.275c3.55701,0,6.58203-1.238,9.07495-3.712,2.49304-2.475,3.74011-5.491,3.74011-9.048,0-1.137-.14709-2.24599-.44006-3.327-.29297-1.082-.71497-2.1-1.26501-3.053l-7.97498,7.975-5.06006-4.73,8.19507-8.19501c-.953-.55-1.96204-.981-3.02502-1.293-1.06299-.311-2.14502-.467-3.245-.467-3.63,0-6.71899,1.27399-9.26794,3.823-2.5481,2.548-3.82202,5.637-3.82202,9.267,0,.88,.09192,1.742,.27502,2.585,.18298,.843,.422,1.687,.71497,2.53001l-14.245,14.18999c-.40308,.403-.60498,.889-.60498,1.458,0,.568,.2019,1.054,.60498,1.457l4.17993,3.85c.40308,.40301,.88,.605,1.43005,.605s1.02698-.202,1.43005-.605m23.19338,2.6112l-6.3999-6.40002-2.1001,2.09998,8.5,8.5,14.1001-14.09998-2.1001-2.09998-12,12Z"/></svg>