<?xml version="1.0" encoding="UTF-8"?><svg id="a" xmlns="http://www.w3.org/2000/svg" viewBox="0 0 80 80"><path d="M39.99999,73c18.22507,0,33-14.77492,33-33S58.22505,7,39.99999,7,6.99999,21.77495,6.99999,40s14.77492,33,33,33" fill="#fff"/><path d="M45.2,63.8667l-11.33301-11.33298,2.8-2.80002,8.533,8.53302,16-16,2.8,2.79999-18.8,18.79999Zm-19.2-16v-3h-7.33301v-4h14.666v-7h-12.60001c-.53299,0-1.01099-.19998-1.433-.59998-.422-.40002-.633-.88901-.633-1.46701v-10.93301c0-.57797,.2-1.056,.60001-1.43298,.39999-.37799,.866-.56702,1.39999-.56702h5.33301v-3h4v3h7.33299v4h-14.666v7h12.60001c.577,0,1.06599,.18903,1.46599,.56702,.40001,.37698,.60001,.87698,.60001,1.5v10.93298c0,.53302-.189,1-.56599,1.40002-.37801,.39999-.856,.59998-1.43401,.59998h-5.33299v3h-4Z"/></svg>