<?xml version="1.0" encoding="UTF-8"?><svg id="a" xmlns="http://www.w3.org/2000/svg" viewBox="0 0 80 80"><path d="M64.90609,21.83835c-.43091-.26184-.86865-.51349-1.31287-.75482-4.44208-2.41309-9.53253-3.78381-14.94318-3.78381-.01758,0-.03491,.00134-.05249,.00134C45.38784,7.267,35.98904-.00003,24.8901-.00003,11.14407-.00003,.00009,11.14401,.00009,24.88999,.00009,35.98905,7.26718,45.38791,17.30136,48.59757c0,.01746-.00134,.03467-.00134,.05212,0,17.31403,14.03601,31.34998,31.35004,31.34998s31.34998-14.03595,31.34998-31.34998c0-11.3623-6.0448-21.31293-15.09393-26.81134Zm-5.17932,8.68085c0,1.04498-.37402,1.94202-1.12299,2.69098-.74902,.74902-1.646,1.12299-2.69098,1.12299-1.04504,0-1.94202-.37396-2.69104-1.12299-.74896-.74896-1.12299-1.646-1.12299-2.69098s.37402-1.94202,1.12299-2.69098c.74902-.74902,1.646-1.12305,2.69104-1.12305,1.04498,0,1.94196,.37402,2.69098,1.12305,.74896,.74896,1.12299,1.646,1.12299,2.69098Zm-42.87396,13.47913c-2.52399-1.08905-4.72699-2.57501-6.61102-4.45905-1.88495-1.88397-3.37097-4.08795-4.45996-6.612-1.08899-2.52301-1.633-5.203-1.633-8.03699,0-2.83502,.54401-5.51398,1.633-8.03802,1.08899-2.52295,2.57501-4.72699,4.45996-6.61096,1.88403-1.88403,4.08704-3.37103,6.61102-4.45898,2.52301-1.08905,5.203-1.63403,8.03699-1.63403,2.83502,0,5.51404,.54498,8.03802,1.63403,2.52301,1.08795,4.72699,2.57495,6.61096,4.45898,1.88403,1.88397,3.37103,4.08801,4.46002,6.61096,1.08899,2.52405,1.633,5.203,1.633,8.03802,0,2.83398-.54401,5.51398-1.633,8.03699-1.08899,2.52405-2.57599,4.72803-4.46002,6.612-1.88397,1.88403-4.08795,3.37-6.61096,4.45905-2.52399,1.08899-5.203,1.633-8.03802,1.633-2.83398,0-5.51398-.54401-8.03699-1.633Zm24.42999,22.62488c-1.95105,1.95099-4.37201,2.927-7.263,2.927s-5.31201-.97601-7.263-2.927c-1.95001-1.95001-2.92603-4.37103-2.92603-7.26202s.97601-5.31201,2.92603-7.263c1.95099-1.95099,4.37195-2.92596,7.263-2.92596s5.31195,.97498,7.263,2.92596c1.95099,1.95099,2.92596,4.37201,2.92596,7.263s-.97498,5.31201-2.92596,7.26202Zm8.987-16.56299v12.90601h-3.13501v-10.45001l-7.10602-6.21802c-.30658-.27142-.56085-.63849-.76727-1.0929,3.90692-2.76898,6.97821-6.63397,8.76855-11.14972,.32013-.08405,.64661-.14038,.98572-.14038,.55701,0,1.08899,.11298,1.59399,.34003,.505,.22595,.89703,.47894,1.17499,.75696l4.07605,4.07599c.93994,.94,2.06396,1.75,3.37,2.42902,1.30597,.67999,2.77795,1.01898,4.41498,1.01898v3.13501c-2.09003,0-3.97101-.39197-5.64301-1.17499-1.672-.784-3.16998-1.83801-4.49402-3.16199l-2.08997-2.09003-5.79901,5.85303,4.65002,4.96301Zm20.27295,16.56299c-1.95099,1.95099-4.37195,2.927-7.263,2.927s-5.31195-.97601-7.263-2.927c-1.94995-1.95001-2.92596-4.37103-2.92596-7.26202s.97601-5.31201,2.92596-7.263c1.95105-1.95099,4.37201-2.92596,7.263-2.92596s5.31201,.97498,7.263,2.92596c1.95105,1.95099,2.92603,4.37201,2.92603,7.263s-.97498,5.31201-2.92603,7.26202Z" fill="#fff"/><path d="M51.41879,39.24417l-5.79901,5.85303,4.65002,4.96301v12.90601h-3.13501v-10.45001l-7.10602-6.21802c-.30658-.27142-.56085-.63849-.76727-1.0929,3.90692-2.76898,6.97821-6.63397,8.76855-11.14972,.32013-.08405,.64661-.14038,.98572-.14038,.55701,0,1.08899,.11298,1.59399,.34003,.505,.22595,.89703,.47894,1.17499,.75696l4.07605,4.07599c.93994,.94,2.06396,1.75,3.37,2.42902,1.30597,.67999,2.77795,1.01898,4.41498,1.01898v3.13501c-2.09003,0-3.97101-.39197-5.64301-1.17499-1.672-.784-3.16998-1.83801-4.49402-3.16199l-2.08997-2.09003Zm19.12396,12.854c1.95105,1.95099,2.92603,4.37201,2.92603,7.263s-.97498,5.31201-2.92603,7.26202c-1.95099,1.95099-4.37195,2.927-7.263,2.927s-5.31195-.97601-7.263-2.927c-1.94995-1.95001-2.92596-4.37103-2.92596-7.26202s.97601-5.31201,2.92596-7.263c1.95105-1.95099,4.37201-2.92596,7.263-2.92596s5.31201,.97498,7.263,2.92596Zm.36603,7.263c0-2.15997-.73199-3.97101-2.19501-5.43396-1.46301-1.46301-3.27399-2.19501-5.43402-2.19501-2.159,0-3.97095,.73199-5.43396,2.19501-1.46301,1.46295-2.19403,3.27399-2.19403,5.43396,0,2.159,.73102,3.97101,2.19403,5.43402s3.27496,2.19397,5.43396,2.19397c2.16003,0,3.97101-.73096,5.43402-2.19397s2.19501-3.27502,2.19501-5.43402Zm-17.68701-31.53296c-.74896,.74896-1.12299,1.646-1.12299,2.69098s.37402,1.94202,1.12299,2.69098c.74902,.74902,1.646,1.12299,2.69104,1.12299,1.04498,0,1.94196-.37396,2.69098-1.12299,.74896-.74896,1.12299-1.646,1.12299-2.69098s-.37402-1.94202-1.12299-2.69098c-.74902-.74902-1.646-1.12305-2.69098-1.12305-1.04504,0-1.94202,.37402-2.69104,1.12305Zm-11.93896,24.26996c1.95099,1.95099,2.92596,4.37201,2.92596,7.263s-.97498,5.31201-2.92596,7.26202c-1.95105,1.95099-4.37201,2.927-7.263,2.927s-5.31201-.97601-7.263-2.927c-1.95001-1.95001-2.92603-4.37103-2.92603-7.26202s.97601-5.31201,2.92603-7.263c1.95099-1.95099,4.37195-2.92596,7.263-2.92596s5.31195,.97498,7.263,2.92596Zm.36597,7.263c0-2.15997-.73199-3.97101-2.19501-5.43396-1.46301-1.46301-3.27399-2.19501-5.43396-2.19501-2.159,0-3.97101,.73199-5.43402,2.19501-1.46301,1.46295-2.19403,3.27399-2.19403,5.43396,0,2.159,.73102,3.97101,2.19403,5.43402s3.27502,2.19397,5.43402,2.19397c2.15997,0,3.97095-.73096,5.43396-2.19397s2.19501-3.27502,2.19501-5.43402ZM16.95681,31.16428h10.00702v-3.11096h-10.00702l4.35498-4.35602-2.229-2.22998-8.14099,8.14197,8.14099,8.14099,2.229-2.22998-4.35498-4.35602Zm15.867-9.02197l-4.35602,4.35498,2.23004,2.22998,8.14099-8.14099-8.08905-8.14099-2.28198,2.23004,4.35602,4.35498h-10.008v3.112h10.008Zm-7.93402,23.48901c-2.83398,0-5.51398-.54401-8.03699-1.633-2.52399-1.08905-4.72699-2.57501-6.61102-4.45905-1.88495-1.88397-3.37097-4.08795-4.45996-6.612-1.08899-2.52301-1.633-5.203-1.633-8.03699,0-2.83502,.54401-5.51398,1.633-8.03802,1.08899-2.52295,2.57501-4.72699,4.45996-6.61096,1.88403-1.88403,4.08704-3.37103,6.61102-4.45898,2.52301-1.08905,5.203-1.63403,8.03699-1.63403,2.83502,0,5.51404,.54498,8.03802,1.63403,2.52301,1.08795,4.72699,2.57495,6.61096,4.45898,1.88403,1.88397,3.37103,4.08801,4.46002,6.61096,1.08899,2.52405,1.633,5.203,1.633,8.03802,0,2.83398-.54401,5.51398-1.633,8.03699-1.08899,2.52405-2.57599,4.72803-4.46002,6.612-1.88397,1.88403-4.08795,3.37-6.61096,4.45905-2.52399,1.08899-5.203,1.633-8.03802,1.633Zm0-3.11102c4.84003,0,8.98804-1.72803,12.44501-5.185s5.18604-7.60498,5.18604-12.44501-1.729-8.98798-5.18604-12.44501-7.60498-5.18597-12.44501-5.18597c-4.83899,0-8.98798,1.729-12.44501,5.18597-3.45697,3.45703-5.185,7.60504-5.185,12.44501s1.72803,8.98798,5.185,12.44501c3.45703,3.45697,7.60602,5.185,12.44501,5.185Z"/></svg>