<?xml version="1.0" encoding="UTF-8"?><svg id="a" xmlns="http://www.w3.org/2000/svg" viewBox="0 0 80 80"><path d="M48.56777,17.31179C45.33132,7.32338,35.95645,.09835,24.89004,.09835,11.14395,.09835,.00002,11.24239,.00002,24.98836,.00002,35.88173,7.00161,45.13466,16.74746,48.50856c-.00012,.0473-.00342,.09387-.00342,.14124,0,17.31415,14.03564,31.34991,31.34998,31.34991s31.34998-14.03577,31.34998-31.34991c0-17.15527-13.78149-31.08368-30.87622-31.33801Z" fill="#fff"/><path d="M63.03774,45.04476h-1.98596l-3.97083-10.81598c-.27832-.76642-.70532-1.34106-1.27991-1.72388-.57458-.38367-1.28076-.5755-2.11658-.5755h-4.89282c-.08765,.30261-.18079,.6026-.27954,.90027v2.23492h5.48584l3.70984,9.98016h-11.59949l-1.35828-3.70984h2.71741v-3.13513h-1.48657c-1.10767,1.76428-2.43018,3.37817-3.9314,4.80811l3.69312,10.44891h-2.66504c-.38281-2.43805-1.50586-4.45013-3.36938-6.03522-.56934-.48383-1.17053-.88458-1.79651-1.2207-1.29456,.79645-2.66882,1.4743-4.10608,2.02612,1.35669,.10944,2.58948,.56592,3.68164,1.41559,1.25366,.97534,2.09033,2.24713,2.5083,3.81421h-6.21814v3.13519h6.21814c-.41797,1.60229-1.24561,2.94336-2.48218,4.02325s-2.69116,1.61938-4.36279,1.61938c-1.95081,0-3.60535-.68811-4.96362-2.06342-1.35889-1.37622-2.03809-3.03973-2.03809-4.99054,0-1.94989,.68811-3.60529,2.06421-4.9635,.25903-.25574,.53149-.47937,.81079-.68695-1.34509,.22498-2.72473,.34814-4.13379,.34814-.13196,0-.26196-.00787-.39343-.00995-.98108,1.56158-1.48291,3.32928-1.48291,5.31226,0,2.82178,.98425,5.22559,2.95227,7.21063,1.9679,1.98596,4.36279,2.97845,7.18457,2.97845,2.5083,0,4.69336-.83575,6.55762-2.5083,1.86353-1.67163,2.98657-3.76202,3.36938-6.26947h9.92786c.41785,2.50745,1.56714,4.59784,3.44861,6.26947,1.88062,1.67255,4.07544,2.5083,6.58374,2.5083,2.8208,0,5.21582-1.0105,7.18359-3.0307,1.96899-2.02014,2.95239-4.4411,2.95239-7.26288,0-2.78662-.9834-5.15533-2.95239-7.10522-1.96777-1.95081-4.36279-2.92621-7.18359-2.92621Zm-9.17041,5.74707c-.40088,.9754-.67017,1.86346-.80969,2.66498h-3.97095l-1.88049-5.27692h8.30762c-.69727,.76556-1.24573,1.63654-1.64648,2.61194Zm14.13403,9.37939c-1.35828,1.37531-3.01367,2.06342-4.96362,2.06342-1.95068,0-3.60522-.68811-4.96436-2.06342-1.35815-1.37622-2.03735-3.03973-2.03735-4.99054,0-1.21857,.2522-2.36871,.75757-3.44769,.50513-1.0799,1.2627-1.91656,2.27319-2.50836l2.24622,5.85156,2.92627-.99249-2.03821-5.90381h.83667c1.94995,0,3.60535,.67908,4.96362,2.03729,1.35815,1.35822,2.03711,3.01361,2.03711,4.9635,0,1.95081-.67896,3.61432-2.03711,4.99054ZM10.94155,29.70766l8.14099-8.14197,2.229,2.22998-4.35498,4.35602h10.00708v3.11096h-10.00708l4.35498,4.35602-2.229,2.22998-8.14099-8.14099Zm13.948,16.02203c2.83508,0,5.51404-.54401,8.03809-1.633,2.52295-1.08905,4.72693-2.57501,6.61096-4.45905,1.88403-1.88397,3.37097-4.08795,4.45996-6.612,1.08899-2.52301,1.63306-5.203,1.63306-8.03699,0-2.83502-.54407-5.51398-1.63306-8.03802-1.08899-2.52295-2.57593-4.72699-4.45996-6.61096-1.88403-1.88403-4.08801-3.37103-6.61096-4.45898-2.52405-1.08905-5.203-1.63403-8.03809-1.63403-2.83398,0-5.51294,.54498-8.03699,1.63403-2.52393,1.08795-4.72693,2.57495-6.61096,4.45898-1.88403,1.88397-3.37097,4.08801-4.45996,6.61096-1.08899,2.52405-1.63306,5.203-1.63306,8.03802,0,2.83398,.54407,5.51398,1.63306,8.03699,1.08899,2.52405,2.57593,4.72803,4.45996,6.612,1.88403,1.88403,4.08704,3.37,6.61096,4.45905,2.52405,1.08899,5.203,1.633,8.03699,1.633Zm-12.44495-8.29602c-3.45703-3.45703-5.18506-7.60498-5.18506-12.44501s1.72803-8.98798,5.18506-12.44501c3.45703-3.45697,7.60596-5.18597,12.44495-5.18597,4.84009,0,8.98804,1.729,12.44507,5.18597,3.45703,3.45703,5.18604,7.60504,5.18604,12.44501s-1.729,8.98798-5.18604,12.44501c-3.45703,3.45697-7.60498,5.185-12.44507,5.185-4.83899,0-8.98792-1.72803-12.44495-5.185Zm10.37097-15.19299v-3.112h10.00806l-4.35608-4.35498,2.28198-2.23004,8.08911,8.14099-8.14099,8.14099-2.2301-2.22998,4.35608-4.35498h-10.00806Z"/></svg>