<?xml version="1.0" encoding="UTF-8"?><svg id="a" xmlns="http://www.w3.org/2000/svg" viewBox="0 0 80 80"><path d="M40,73c18.22581,0,33-14.77416,33-33S58.22581,7,40,7,7,21.77419,7,40s14.77416,33,33,33" fill="#fff"/><path d="M39.99963,64.66711c-6.61902-5.633-11.56198-10.86401-14.82999-15.69501-3.26898-4.82999-4.90298-9.30099-4.90298-13.41199,0-6.16699,1.98401-11.07901,5.95099-14.73801s8.56097-5.48901,13.78198-5.48901,9.81604,1.83002,13.78302,5.48901,5.95099,8.57101,5.95099,14.73801c0,4.11099-1.63397,8.582-4.90302,13.41199-3.26801,4.83099-8.21198,10.06201-14.83099,15.69501m0-4.87201c5.46802-4.974,9.50702-9.48599,12.11798-13.53598,2.61005-4.04901,3.91602-7.616,3.91602-10.69901,0-4.85101-1.552-8.81799-4.65601-11.90201-3.104-3.08301-6.89697-4.625-11.37799-4.625s-8.27301,1.54199-11.37701,4.625c-3.10397,3.08401-4.65594,7.05099-4.65594,11.90201,0,3.08301,1.336,6.64999,4.008,10.69901,2.67297,4.04999,6.68097,8.56198,12.02496,13.53598m-6.78296-17.94501v-11.40799l6.78296-4.50198,6.784,4.50198v11.40799h-3.70001v-7.39999h-6.16699v7.39999h-3.69995Z"/></svg>